<svg xmlns="http://www.w3.org/2000/svg" x="0px" y="0px"
     width="16" height="16"
     viewBox="0 0 172 172"
     style=" fill:#000000;">
    <g fill="none" fill-rule="nonzero" stroke="none" stroke-width="1" stroke-linecap="butt" stroke-linejoin="miter"
       stroke-miterlimit="10" stroke-dasharray="" stroke-dashoffset="0" font-family="none" font-weight="none"
       font-size="none" text-anchor="none" style="mix-blend-mode: normal">
        <path d="M0,172v-172h172v172z" fill="none"></path>
        <g>
            <path d="M10.75,128.9785l75.25,40.5791l75.25,-40.5791v-85.957l-75.25,-40.5791l-75.25,40.5791zM86,135.45c-27.2663,0 -49.45,-22.1837 -49.45,-49.45c0,-27.2663 22.1837,-49.45 49.45,-49.45c27.2663,0 49.45,22.1837 49.45,49.45c0,27.2663 -22.1837,49.45 -49.45,49.45z"
                  fill="#f2faff"></path>
            <path d="M86,0l-77.4,41.7358v88.5284l77.4,41.7358l77.4,-41.7358v-88.5284zM159.1,127.6971l-73.1,39.4181l-73.1,-39.4181v-83.3942l73.1,-39.4181l73.1,39.4181z"
                  fill="#8398ab"></path>
            <path d="M86,146.2c-33.196,0 -60.2,-27.004 -60.2,-60.2c0,-33.196 27.004,-60.2 60.2,-60.2c33.196,0 60.2,27.004 60.2,60.2c0,33.196 -27.004,60.2 -60.2,60.2zM86,38.7c-26.0795,0 -47.3,21.2162 -47.3,47.3c0,26.0838 21.2205,47.3 47.3,47.3c26.0795,0 47.3,-21.2162 47.3,-47.3c0,-26.0838 -21.2205,-47.3 -47.3,-47.3z"
                  fill="#d6e3ed"></path>
            <path d="M163.4,125.2117l-4.3,-3.44v5.9254l-50.2627,27.1029h9.0601l45.5026,-24.5358z" fill="#d6e3ed"></path>
            <path d="M34.4,86c0,28.4531 23.1469,51.6 51.6,51.6c1.4534,0 2.8767,-0.0989 4.3,-0.2193v-4.3c-1.419,0.129 -2.8466,0.215 -4.3,0.215c-26.1225,0 -47.3,-21.1775 -47.3,-47.3c0,-26.1225 21.1775,-47.2957 47.3,-47.2957c26.1225,0 47.3,21.1775 47.3,47.3c0,4.7085 -0.7095,9.245 -1.9909,13.5407l3.5733,2.8595c1.7372,-5.16 2.7176,-10.664 2.7176,-16.4002c0,-28.4531 -23.1469,-51.6 -51.6,-51.6c-28.4531,0 -51.6,23.1469 -51.6,51.6z"
                  fill="#8398ab"></path>
            <g>
                <path d="M131.15,167.528v-19.178h-34.4v-21.5h34.4v-19.178l37.4057,29.928z" fill="#bae0bd"></path>
                <path d="M98.9,129h30.1h4.3v-4.3v-12.5517l31.8157,25.4517l-31.8157,25.4517v-12.5517v-4.3h-4.3h-30.1v-17.2M94.6,124.7v25.8h34.4v21.5l43,-34.4l-43,-34.4v21.5h-34.4z"
                      fill="#5e9c76"></path>
            </g>
        </g>
    </g>
</svg>