<svg xmlns="http://www.w3.org/2000/svg" x="0px" y="0px"
     width="30" height="30"
     viewBox="0 0 172 172"
     style=" fill:#000000;"><g fill="none" fill-rule="nonzero" stroke="none" stroke-width="1" stroke-linecap="butt" stroke-linejoin="miter" stroke-miterlimit="10" stroke-dasharray="" stroke-dashoffset="0" font-family="none" font-weight="none" font-size="none" text-anchor="none" style="mix-blend-mode: normal"><path d="M0,172v-172h172v172z" fill="none"></path><g><path d="M15.05,19.35h129v98.9h-129z" fill="#f5ce85"></path><path d="M141.9,21.5v94.6h-124.7v-94.6zM146.2,17.2h-133.3v103.2h133.3z" fill="#967a44"></path><rect x="2.5" y="0.5" transform="scale(4.3,4.3)" width="32" height="4" fill="#f5ce85"></rect><path d="M146.2,4.3v12.9h-133.3v-12.9h133.3M150.5,0h-141.9v21.5h141.9v-21.5z" fill="#967a44"></path><path d="M68.8,96.3802l-25.6151,-25.6151l6.0802,-6.0802l19.5349,19.5349l45.3349,-45.3349l6.0802,6.0802z" fill="#967a44"></path><path d="M144.05,118.25h-139.75v43h139.75c11.8551,0 21.5,-9.6449 21.5,-21.5c0,-11.8551 -9.6449,-21.5 -21.5,-21.5z" fill="#e1f5ff"></path><path d="M144.05,116.1h-139.75v4.3h139.75c10.6683,0 19.35,8.6817 19.35,19.35c0,10.6683 -8.6817,19.35 -19.35,19.35h-139.75v4.3h139.75c13.0075,0 23.65,-10.6425 23.65,-23.65c0,-13.0075 -10.6425,-23.65 -23.65,-23.65z" fill="#7496c4"></path><circle cx="33.5" cy="32.5" transform="scale(4.3,4.3)" r="2.5" fill="#b5ddf5"></circle><circle cx="26.5" cy="32.5" transform="scale(4.3,4.3)" r="2.5" fill="#b5ddf5"></circle><circle cx="19.5" cy="32.5" transform="scale(4.3,4.3)" r="2.5" fill="#b5ddf5"></circle><circle cx="12.5" cy="32.5" transform="scale(4.3,4.3)" r="2.5" fill="#b5ddf5"></circle><circle cx="5.5" cy="32.5" transform="scale(4.3,4.3)" r="2.5" fill="#b5ddf5"></circle></g></g></svg>